<?xml version="1.0" standalone="no"?>
<!DOCTYPE svg PUBLIC "-//W3C//DTD SVG 20010904//EN"
 "http://www.w3.org/TR/2001/REC-SVG-20010904/DTD/svg10.dtd">
<svg version="1.0" xmlns="http://www.w3.org/2000/svg"
 width="519.000000pt" height="168.000000pt" viewBox="0 0 519.000000 168.000000"
 preserveAspectRatio="xMidYMid meet">

<g transform="translate(0.000000,168.000000) scale(0.100000,-0.100000)"
fill="#000000" stroke="none">
<path d="M765 1008 c-37 -29 -55 -76 -55 -143 0 -79 20 -119 98 -191 l67 -63
0 -56 c0 -50 -3 -60 -29 -82 -33 -28 -66 -25 -102 8 -30 28 -44 24 -44 -14 0
-43 35 -77 87 -84 88 -12 143 58 143 181 0 86 -15 116 -97 191 -58 53 -66 65
-70 105 -4 36 -1 51 17 73 26 32 44 34 88 7 18 -11 35 -20 37 -20 3 0 5 15 5
34 0 67 -87 100 -145 54z"/>
<path d="M2365 1008 c-37 -29 -55 -76 -55 -143 0 -79 20 -119 98 -191 l67 -63
0 -56 c0 -50 -3 -60 -29 -82 -33 -28 -66 -25 -102 8 -30 28 -44 24 -44 -14 0
-43 35 -77 87 -84 88 -12 143 58 143 181 0 86 -15 116 -97 191 -58 53 -66 65
-70 105 -4 36 -1 51 17 73 26 32 44 34 88 7 18 -11 35 -20 37 -20 3 0 5 15 5
34 0 67 -87 100 -145 54z"/>
<path d="M960 985 l0 -35 55 0 55 0 0 -280 0 -280 25 0 25 0 0 280 0 280 55 0
55 0 0 35 0 35 -135 0 -135 0 0 -35z"/>
<path d="M1290 705 l0 -315 25 0 25 0 0 140 0 140 28 0 c16 0 36 -8 45 -18 14
-15 46 -122 71 -234 5 -21 12 -28 31 -28 19 0 25 5 25 21 0 37 -51 223 -70
256 -18 31 -18 32 2 50 72 63 60 256 -18 291 -14 7 -56 12 -94 12 l-70 0 0
-315z m140 235 c26 -14 43 -73 35 -120 -8 -49 -44 -80 -91 -80 l-34 0 0 105 0
105 36 0 c19 0 44 -4 54 -10z"/>
<path d="M1622 708 l3 -313 103 -3 102 -3 0 36 0 35 -80 0 -80 0 0 115 0 115
70 0 70 0 0 30 0 30 -70 0 -70 0 0 100 0 99 78 3 77 3 3 33 3 32 -106 0 -105
0 2 -312z"/>
<path d="M1912 708 l3 -313 103 -3 102 -3 0 36 0 35 -80 0 -80 0 0 115 0 115
70 0 70 0 0 30 0 30 -70 0 -70 0 0 100 0 99 78 3 77 3 3 33 3 32 -106 0 -105
0 2 -312z"/>
<path d="M2687 998 c-15 -62 -127 -587 -127 -597 0 -6 11 -11 24 -11 25 0 28
8 51 133 l7 37 78 0 78 0 10 -47 c6 -27 14 -65 17 -85 6 -33 11 -38 36 -38 27
0 28 2 22 33 -4 17 -34 158 -67 312 l-61 280 -31 3 c-26 3 -33 -1 -37 -20z
m66 -220 c15 -73 27 -139 27 -145 0 -9 -19 -13 -60 -13 -40 0 -60 4 -60 12 0
25 55 278 60 278 4 0 18 -60 33 -132z"/>
<path d="M2957 1014 c-4 -4 -7 -146 -7 -316 l0 -308 25 0 25 0 1 263 c0 144 2
258 4 252 2 -5 33 -104 69 -220 95 -303 92 -295 127 -295 l29 0 0 315 c0 307
0 315 -20 315 -19 0 -20 -8 -22 -247 l-3 -248 -58 180 c-105 325 -98 310 -132
313 -17 2 -34 0 -38 -4z"/>
<path d="M3347 1013 c-4 -3 -7 -145 -7 -315 l0 -308 25 0 25 0 1 273 1 272 57
-245 c32 -135 61 -257 64 -272 5 -20 14 -28 30 -28 22 0 26 14 87 272 l65 272
3 -272 2 -272 25 0 25 0 -2 313 -3 312 -36 3 c-23 2 -38 -2 -41 -10 -3 -7 -31
-118 -63 -246 -31 -128 -59 -231 -61 -229 -2 2 -29 109 -59 237 -31 129 -58
237 -61 242 -6 10 -68 11 -77 1z"/>
<path d="M3937 998 c-15 -62 -127 -587 -127 -597 0 -6 11 -11 24 -11 25 0 28
8 51 133 l7 37 78 0 78 0 10 -47 c6 -27 14 -65 17 -85 6 -33 11 -38 36 -38 27
0 28 2 22 33 -4 17 -34 158 -67 312 l-61 280 -31 3 c-26 3 -33 -1 -37 -20z
m66 -220 c15 -73 27 -139 27 -145 0 -9 -19 -13 -60 -13 -40 0 -60 4 -60 12 0
25 55 278 60 278 4 0 18 -60 33 -132z"/>
<path d="M4197 1014 c-4 -4 -7 -146 -7 -316 l0 -308 25 0 25 0 1 263 c0 144 2
258 4 252 2 -5 33 -104 69 -220 95 -303 92 -295 127 -295 l29 0 0 315 c0 307
0 315 -20 315 -19 0 -20 -8 -22 -247 l-3 -248 -58 180 c-105 325 -98 310 -132
313 -17 2 -34 0 -38 -4z"/>
<path d="M1260 205 c0 -104 2 -125 15 -125 13 0 15 21 15 125 0 104 -2 125
-15 125 -13 0 -15 -21 -15 -125z"/>
<path d="M3230 310 c-11 -11 -20 -27 -20 -35 0 -8 -4 -15 -10 -15 -5 0 -10 -7
-10 -15 0 -8 5 -15 10 -15 6 0 10 -32 10 -75 0 -60 3 -75 15 -75 12 0 15 15
15 75 0 73 1 75 25 75 16 0 25 6 25 15 0 9 -9 15 -25 15 -15 0 -25 6 -25 14 0
20 27 39 45 32 9 -3 15 0 15 9 0 22 -46 19 -70 -5z"/>
<path d="M3530 291 l0 -39 -39 5 c-33 5 -44 1 -65 -20 -31 -31 -36 -99 -10
-135 13 -19 23 -22 75 -20 l59 3 0 123 c0 75 -4 122 -10 122 -5 0 -10 -18 -10
-39z m-16 -64 c13 -10 17 -24 14 -62 -3 -44 -6 -51 -31 -59 -42 -15 -61 2 -65
57 -3 38 1 48 20 61 27 19 39 20 62 3z"/>
<path d="M818 314 c-5 -4 -8 -58 -8 -121 l0 -113 50 0 c28 0 66 6 85 14 76 32
88 155 19 201 -26 17 -135 31 -146 19z m136 -49 c20 -18 26 -34 26 -65 0 -58
-33 -90 -95 -90 l-45 0 0 90 0 90 44 0 c32 0 50 -6 70 -25z"/>
<path d="M1350 305 c0 -8 7 -15 15 -15 8 0 15 7 15 15 0 8 -7 15 -15 15 -8 0
-15 -7 -15 -15z"/>
<path d="M1960 305 c0 -8 7 -15 15 -15 8 0 15 7 15 15 0 8 -7 15 -15 15 -8 0
-15 -7 -15 -15z"/>
<path d="M2599 292 c-25 -23 -33 -38 -36 -78 -6 -56 13 -106 46 -124 40 -21
141 -9 141 17 0 10 -6 13 -16 9 -85 -33 -144 2 -144 84 0 76 52 114 120 87 33
-13 40 -13 40 -2 0 21 -33 35 -79 35 -30 0 -49 -7 -72 -28z"/>
<path d="M3320 305 c0 -8 7 -15 15 -15 8 0 15 7 15 15 0 8 -7 15 -15 15 -8 0
-15 -7 -15 -15z"/>
<path d="M1075 235 c-35 -34 -35 -96 0 -130 35 -36 135 -34 135 1 0 11 -4 12
-19 4 -48 -25 -111 -2 -111 41 0 17 7 19 65 19 57 0 65 2 65 19 0 10 -9 30
-21 45 -28 35 -80 36 -114 1z m93 -7 c26 -26 13 -38 -38 -38 -52 0 -60 8 -34
34 18 19 55 21 72 4z"/>
<path d="M1350 170 c0 -73 3 -90 15 -90 12 0 15 17 15 90 0 73 -3 90 -15 90
-12 0 -15 -17 -15 -90z"/>
<path d="M1430 249 c0 -30 65 -170 78 -167 12 3 56 93 76 156 13 39 -19 25
-34 -15 -7 -21 -20 -54 -28 -73 l-14 -35 -28 70 c-25 63 -50 95 -50 64z"/>
<path d="M1645 235 c-19 -18 -25 -35 -25 -65 0 -56 34 -90 89 -90 49 0 71 8
71 26 0 11 -4 12 -19 4 -48 -25 -111 -2 -111 41 0 17 7 19 65 19 57 0 65 2 65
19 0 10 -9 30 -21 45 -28 35 -80 36 -114 1z m93 -7 c26 -26 13 -38 -38 -38
-52 0 -60 8 -34 34 18 19 55 21 72 4z"/>
<path d="M1820 170 c0 -73 3 -90 15 -90 12 0 15 14 15 65 0 68 12 85 59 85 12
0 21 7 21 15 0 19 -17 19 -52 1 -24 -13 -28 -13 -28 0 0 8 -7 14 -15 14 -12 0
-15 -17 -15 -90z"/>
<path d="M1960 170 c0 -73 3 -90 15 -90 12 0 15 17 15 90 0 73 -3 90 -15 90
-12 0 -15 -17 -15 -90z"/>
<path d="M2050 170 c0 -73 3 -90 15 -90 12 0 15 14 15 69 0 67 1 69 30 81 47
19 60 2 60 -81 0 -55 3 -69 15 -69 22 0 21 127 -1 158 -16 24 -53 29 -85 12
-13 -7 -19 -7 -19 0 0 5 -7 10 -15 10 -12 0 -15 -17 -15 -90z"/>
<path d="M2275 235 c-35 -34 -35 -96 1 -131 25 -25 39 -27 88 -8 20 8 21 -15
3 -40 -10 -14 -23 -17 -55 -14 -28 2 -42 0 -42 -8 0 -15 46 -27 73 -18 51 15
57 31 57 138 l0 102 -50 2 c-42 2 -55 -2 -75 -23z m89 -8 c13 -10 17 -24 14
-57 -3 -39 -7 -46 -31 -54 -40 -15 -61 2 -65 52 -2 32 1 43 20 56 27 19 39 20
62 3z"/>
<path d="M2815 235 c-32 -31 -34 -91 -4 -129 16 -20 29 -26 59 -26 30 0 43 6
59 26 47 60 11 154 -59 154 -19 0 -40 -9 -55 -25z m89 -11 c19 -18 22 -94 4
-112 -15 -15 -61 -15 -76 0 -7 7 -12 31 -12 54 0 46 19 74 50 74 10 0 26 -7
34 -16z"/>
<path d="M3000 170 c0 -73 3 -90 15 -90 12 0 15 14 15 69 0 67 1 69 30 81 47
19 60 2 60 -81 0 -55 3 -69 15 -69 22 0 21 127 -1 158 -16 24 -53 29 -85 12
-13 -7 -19 -7 -19 0 0 5 -7 10 -15 10 -12 0 -15 -17 -15 -90z"/>
<path d="M3320 170 c0 -73 3 -90 15 -90 12 0 15 17 15 90 0 73 -3 90 -15 90
-12 0 -15 -17 -15 -90z"/>
<path d="M3625 235 c-19 -18 -25 -35 -25 -65 0 -56 34 -90 89 -90 49 0 71 8
71 26 0 11 -4 12 -19 4 -48 -25 -111 -2 -111 41 0 17 7 19 65 19 57 0 65 2 65
19 0 10 -9 30 -21 45 -28 35 -80 36 -114 1z m93 -7 c26 -26 13 -38 -38 -38
-52 0 -60 8 -34 34 18 19 55 21 72 4z"/>
<path d="M3810 170 c0 -73 3 -90 15 -90 12 0 15 14 15 69 0 67 1 69 30 81 47
19 60 2 60 -81 0 -55 3 -69 15 -69 22 0 21 127 -1 158 -16 24 -53 29 -85 12
-13 -7 -19 -7 -19 0 0 5 -7 10 -15 10 -12 0 -15 -17 -15 -90z"/>
<path d="M4035 235 c-53 -52 -19 -155 50 -155 44 0 65 9 65 26 0 11 -4 12 -19
4 -51 -27 -91 0 -91 60 0 60 40 87 91 60 15 -8 19 -7 19 4 0 34 -81 36 -115 1z"/>
<path d="M4205 235 c-19 -18 -25 -35 -25 -65 0 -56 34 -90 89 -90 49 0 71 8
71 26 0 11 -4 12 -19 4 -48 -25 -111 -2 -111 41 0 17 7 19 65 19 57 0 65 2 65
19 0 10 -9 30 -21 45 -28 35 -80 36 -114 1z m93 -7 c26 -26 13 -38 -38 -38
-52 0 -60 8 -34 34 18 19 55 21 72 4z"/>
</g>
</svg>
